<svg width="172" height="40" viewBox="0 0 172 40" fill="none" xmlns="http://www.w3.org/2000/svg">
<rect width="40" height="40" fill="#D95E0F"/>
<path fill-rule="evenodd" clip-rule="evenodd" d="M15.828 15.1591L20.8784 20.2095L23.3784 17.7095L26.8243 21.1554L29.0541 18.9257L34.9256 24.7973H5.1188L15.828 15.1591ZM7.5839 23.8513H32.6419L29.0541 20.2635L26.8243 22.4932L23.3784 19.0473L20.8784 21.5473L15.7937 16.4625L7.5839 23.8513Z" fill="white"/>
<path fill-rule="evenodd" clip-rule="evenodd" d="M50 9.35728V30.6427H53.8345V11.8615L63.1469 30.6427H69.1725L77.7806 11.8615V30.6427H81.6151V9.35728H74.1026L66.2771 26.8082L57.8255 9.35728H50ZM105.013 9.35728H88.1103V30.6427H105.013V27.356H92.8839V21.3303H105.013V17.8871H92.8839V12.5658H105.013V9.35728ZM110.726 9.35728H117.378L130.133 26.3387V9.35728H134.124V30.6427H127.942L114.874 14.0526V30.6427H110.726V9.35728ZM151.888 9.35728H139.759V30.6427H153.062C155.958 30.6427 161.749 28.5924 161.749 20.3913C161.749 12.1901 155.175 9.61814 151.888 9.35728ZM167.539 9.35728H172V30.6427H167.539V9.35728ZM144.454 12.5658H151.732C153.61 12.9831 157.366 15.023 157.366 19.8435C157.366 24.664 153.61 26.8604 151.732 27.356H144.454V12.5658Z" fill="#231915"/>
</svg>
