<svg width="18" height="19" viewBox="0 0 18 19" fill="none" xmlns="http://www.w3.org/2000/svg">
<path d="M16.8722 18.9366C7.27411 18.9502 -0.0102573 11.5872 1.08421e-05 2.08423C1.08421e-05 1.46364 0.503691 0.957733 1.12501 0.957733H4.09429C4.65181 0.957733 5.12542 1.3669 5.20729 1.91772C5.4035 3.2379 5.78832 4.52313 6.35005 5.73416L6.46565 5.98339C6.6264 6.32994 6.51744 6.74169 6.20626 6.96365C5.28671 7.61956 4.93529 8.93985 5.65166 9.97004C6.55063 11.2628 7.68381 12.3944 8.97781 13.2919C10.0091 14.0073 11.3308 13.6563 11.9874 12.738C12.2098 12.427 12.6223 12.3181 12.9694 12.4788L13.2178 12.5937C14.4304 13.1547 15.7172 13.5391 17.0391 13.735C17.5906 13.8168 18 14.2898 18 14.8467V17.8129C18 18.4335 17.4951 18.9366 16.8738 18.9366L16.8722 18.9366Z" fill="#D95E0F"/>
</svg>
