<svg width="20" height="17" viewBox="0 0 20 17" fill="none" xmlns="http://www.w3.org/2000/svg">
<path fill-rule="evenodd" clip-rule="evenodd" d="M0.00055021 6.26703C0.000488281 6.3791 0.000488281 6.49352 0.000488281 6.61035V10.3447C0.000488281 13.1732 0.000488281 14.5874 0.879168 15.4661C1.75785 16.3447 3.17206 16.3447 6.00049 16.3447H13.0227C15.8511 16.3447 17.2653 16.3447 18.144 15.4661C19.0227 14.5874 19.0227 13.1732 19.0227 10.3448V6.61035C19.0227 6.49352 19.0227 6.3791 19.0226 6.26703L10.529 11.2857C9.90139 11.6565 9.12175 11.6565 8.49416 11.2857L0.00055021 6.26703ZM0.0390849 4.10602C0.199682 4.11208 0.361118 4.15703 0.509196 4.24453L9.51157 9.5638L18.5139 4.24453C18.662 4.15703 18.8235 4.11209 18.9841 4.10602C18.9133 2.85063 18.7126 2.05768 18.144 1.48903C17.2653 0.610352 15.8511 0.610352 13.0227 0.610352H6.00049C3.17206 0.610352 1.75785 0.610352 0.879168 1.48903C0.310518 2.05768 0.109878 2.85062 0.0390849 4.10602Z" fill="#02895A"/>
</svg>
