<svg width="60" height="74" viewBox="0 0 60 74" fill="none" xmlns="http://www.w3.org/2000/svg">
<path d="M29.6999 73.8C24.3409 69.3837 19.3736 64.5421 14.8499 59.3259C8.06139 51.4924 3.74923e-06 39.8262 3.74923e-06 28.7093C-0.00601328 17.0986 7.23084 6.62875 18.3336 2.1853C29.4363 -2.25816 42.2165 0.200665 50.7104 8.41438C56.2959 13.7868 59.4248 21.0947 59.3999 28.7093C59.3999 39.8262 51.3383 51.4924 44.5498 59.3259C40.0261 64.5421 35.0588 69.3837 29.6999 73.8ZM29.6999 16.4118C25.1524 16.4118 20.9504 18.7557 18.6766 22.5606C16.4029 26.3654 16.4029 31.0532 18.6766 34.858C20.9504 38.6629 25.1524 41.0068 29.6999 41.0068C36.7296 41.0068 42.4284 35.501 42.4284 28.7093C42.4284 21.9176 36.7296 16.4118 29.6999 16.4118Z" fill="#D95E0F"/>
</svg>
