<svg width="17" height="21" viewBox="0 0 17 21" fill="none" xmlns="http://www.w3.org/2000/svg">
<path d="M8.50045 21C6.96673 19.7433 5.54512 18.3656 4.25047 16.8814C2.30762 14.6523 0.000489354 11.3327 0.000489354 8.16931C-0.00123269 4.86547 2.06992 1.88623 5.24747 0.621833C8.42503 -0.642565 12.0827 0.0570998 14.5136 2.39434C16.1121 3.92306 17.0076 6.00255 17.0004 8.16931C17.0004 11.3327 14.6933 14.6523 12.7504 16.8814C11.4558 18.3656 10.0342 19.7433 8.50045 21ZM8.50045 4.67003C7.19899 4.67003 5.99639 5.33699 5.34566 6.41967C4.69493 7.50235 4.69493 8.83627 5.34566 9.91895C5.99639 11.0016 7.19899 11.6686 8.50045 11.6686C10.5123 11.6686 12.1433 10.1019 12.1433 8.16931C12.1433 6.23671 10.5123 4.67003 8.50045 4.67003Z" fill="#02895A"/>
</svg>
