<svg width="20" height="21" viewBox="0 0 20 21" fill="none" xmlns="http://www.w3.org/2000/svg">
<path d="M17.8308 20.6744C7.68767 20.6897 -0.0103515 12.4049 0.000499739 1.71235C0.000499739 1.01407 0.532782 0.444824 1.18939 0.444824H4.32728C4.91646 0.444824 5.41697 0.905212 5.50348 1.525C5.71084 3.01044 6.11751 4.45657 6.71113 5.81921L6.83331 6.09964C7.00318 6.48957 6.88804 6.95287 6.55919 7.20262C5.58742 7.94064 5.21604 9.42621 5.97309 10.5854C6.9231 12.04 8.12064 13.3133 9.48812 14.3231C10.578 15.128 11.9747 14.7331 12.6687 13.6998C12.9037 13.3499 13.3396 13.2274 13.7064 13.4082L13.9689 13.5375C15.2503 14.1687 16.6102 14.6012 18.0071 14.8217C18.59 14.9137 19.0227 15.4459 19.0227 16.0725V19.4101C19.0227 20.1084 18.4891 20.6744 17.8325 20.6744L17.8308 20.6744Z" fill="#02895A"/>
</svg>
